<?xml version="1.0" encoding="UTF-8" standalone="no"?>
<svg
   id="Logo_L"
   data-name="Logo L"
   width="127.56"
   height="127.56"
   viewBox="0 0 127.56 127.56"
   version="1.1"
   sodipodi:docname="LogoLwhite.svg"
   inkscape:version="1.1.1 (3bf5ae0d25, 2021-09-20)"
   xmlns:inkscape="http://www.inkscape.org/namespaces/inkscape"
   xmlns:sodipodi="http://sodipodi.sourceforge.net/DTD/sodipodi-0.dtd"
   xmlns="http://www.w3.org/2000/svg"
   xmlns:svg="http://www.w3.org/2000/svg">
  <sodipodi:namedview
     id="namedview14"
     pagecolor="#ffffff"
     bordercolor="#666666"
     borderopacity="1.0"
     inkscape:pageshadow="2"
     inkscape:pageopacity="0.0"
     inkscape:pagecheckerboard="true"
     showgrid="false"
     showborder="false"
     inkscape:zoom="6.5224209"
     inkscape:cx="48.984879"
     inkscape:cy="23.227572"
     inkscape:window-width="1920"
     inkscape:window-height="1017"
     inkscape:window-x="-8"
     inkscape:window-y="-8"
     inkscape:window-maximized="1"
     inkscape:current-layer="Gruppe_171707" />
  <defs
     id="defs4">
    <clipPath
       id="clip-path">
      <rect
         id="Rechteck_156117"
         data-name="Rechteck 156117"
         width="127.56"
         height="127.56"
         transform="translate(-0.42 -0.43)"
         fill="none" />
    </clipPath>
  </defs>
  <g
     id="Gruppe_171707"
     data-name="Gruppe 171707"
     transform="translate(0.42 0.43)"
     clip-path="url(#clip-path)">
    <path
       id="Pfad_95350"
       data-name="Pfad 95350"
       d="M79.11,42.28a3.63,3.63,0,0,1-1.28-1.64,6.24,6.24,0,0,1-.43-2.41,6.72,6.72,0,0,1,.42-2.42,3.91,3.91,0,0,1,1.27-1.74,3.44,3.44,0,0,1,2.13-.65,3.38,3.38,0,0,1,2.06.62,3.69,3.69,0,0,1,1.26,1.69,6.72,6.72,0,0,1,.43,2.5,6.41,6.41,0,0,1-.44,2.49,3.44,3.44,0,0,1-1.27,1.59,3.57,3.57,0,0,1-2,.56,3.64,3.64,0,0,1-2.11-.59m5,7.28a4.37,4.37,0,0,0,2-1.56A4.57,4.57,0,0,0,87,45.25V31.79H85v2.08h-.2c-.15-.23-.36-.52-.63-.88A3.65,3.65,0,0,0,83,32a4.17,4.17,0,0,0-2-.42,5.19,5.19,0,0,0-2.91.82,5.42,5.42,0,0,0-2,2.32,8.14,8.14,0,0,0-.71,3.51,7.51,7.51,0,0,0,.73,3.47,5.19,5.19,0,0,0,2,2.18,5.46,5.46,0,0,0,2.85.75,4.31,4.31,0,0,0,2-.4,3.6,3.6,0,0,0,1.16-.93,8.887,8.887,0,0,0,.62-.88h.18v2.66a2.79,2.79,0,0,1-1,2.4,4.25,4.25,0,0,1-2.61.77,4.54,4.54,0,0,1-1.92-.35,3.62,3.62,0,0,1-1.14-.81c-.28-.31-.51-.58-.69-.82l-1.6,1.13a5.25,5.25,0,0,0,2.84,2.25,7.5,7.5,0,0,0,2.51.37,7.69,7.69,0,0,0,2.85-.5M64.4,35.06a3,3,0,0,1,1.19-1.22,3.51,3.51,0,0,1,1.72-.42,2.85,2.85,0,0,1,2.2.87,3.44,3.44,0,0,1,.8,2.41v8.18h2V36.56a6.08,6.08,0,0,0-.55-2.76,3.74,3.74,0,0,0-1.55-1.64,4.83,4.83,0,0,0-2.33-.54,4.32,4.32,0,0,0-2.42.61,3.73,3.73,0,0,0-1.4,1.6H63.9v-2H62V44.88h2V37a4,4,0,0,1,.43-1.94m-8.67,6.49a3.25,3.25,0,0,1-1.31,1.17,3.41,3.41,0,0,1-1.53.39,2.71,2.71,0,0,1-2.06-.86A3.16,3.16,0,0,1,50,40V31.79H48v8.32a6.22,6.22,0,0,0,.55,2.76,3.69,3.69,0,0,0,1.5,1.64,4.35,4.35,0,0,0,2.18.54,4.16,4.16,0,0,0,2.46-.69,4.38,4.38,0,0,0,1.43-1.7h.13v2.22h2V31.79h-2v7.74a3.51,3.51,0,0,1-.53,2m-15.56.12a3.16,3.16,0,0,0,.54,1.9,3.2,3.2,0,0,0,1.34,1.11,4,4,0,0,0,1.67.37,4.8,4.8,0,0,0,.93-.08c.24-.06.43-.11.57-.16L44.81,43l-.34.07a3.779,3.779,0,0,1-.55,0,2.64,2.64,0,0,1-.84-.14,1.25,1.25,0,0,1-.64-.57,2.5,2.5,0,0,1-.25-1.27V28.65h-2Zm-2-8.18H45v-1.7H38.2ZM33.53,44.88V30.46A2.16,2.16,0,0,1,34,29a1.82,1.82,0,0,1,1.43-.5,2.59,2.59,0,0,1,.7.08l.43.13L37.11,27a5,5,0,0,0-.7-.22,5.08,5.08,0,0,0-1.21-.12,4.3,4.3,0,0,0-1.78.37A3.31,3.31,0,0,0,32,28.11,3.18,3.18,0,0,0,31.51,30V44.9ZM29.4,33.49h7.06v-1.7H29.4ZM27,29.21a1.32,1.32,0,0,0,0-1.93,1.48,1.48,0,0,0-2,0,1.32,1.32,0,0,0,0,1.93,1.48,1.48,0,0,0,2,0m0,2.58H25V44.88h2Zm-9.86,9.88a3.16,3.16,0,0,0,.54,1.9A3.2,3.2,0,0,0,19,44.68a4,4,0,0,0,1.67.37,4.73,4.73,0,0,0,.93-.08c.24-.06.43-.11.57-.16L21.73,43l-.34.07a3.78,3.78,0,0,1-.55,0A2.54,2.54,0,0,1,20,43a1.27,1.27,0,0,1-.65-.57,2.5,2.5,0,0,1-.25-1.27V28.65h-2Zm-2-8.18H21.9v-1.7H15.12Zm-2.35-1.7A4.06,4.06,0,0,0,12,29.43a5.18,5.18,0,0,0-2.08-1.64,7.17,7.17,0,0,0-3-.6,7.18,7.18,0,0,0-3,.61A5.22,5.22,0,0,0,1.7,29.5a4.24,4.24,0,0,0-.8,2.56,3.69,3.69,0,0,0,1.2,2.86A8.14,8.14,0,0,0,5.33,36.6l2.15.61a12.21,12.21,0,0,1,1.71.6,3.47,3.47,0,0,1,1.28.88A2,2,0,0,1,11,40.11a2.62,2.62,0,0,1-.56,1.66,3.66,3.66,0,0,1-1.53,1.11,5.56,5.56,0,0,1-2.17.4A6.07,6.07,0,0,1,4.76,43a3.46,3.46,0,0,1-1.48-1,2.65,2.65,0,0,1-.67-1.63H.42a4.81,4.81,0,0,0,.89,2.51,5,5,0,0,0,2.14,1.69,8.09,8.09,0,0,0,3.25.61,7.87,7.87,0,0,0,3.42-.68,5.09,5.09,0,0,0,2.15-1.81A4.63,4.63,0,0,0,13,40.14a3.92,3.92,0,0,0-.5-2.07,4.58,4.58,0,0,0-1.27-1.39,7.33,7.33,0,0,0-1.61-.85c-.56-.21-1.07-.38-1.52-.5l-1.78-.47c-.32-.09-.68-.2-1.06-.34A5.7,5.7,0,0,1,4.15,34a3,3,0,0,1-.87-.82A2.16,2.16,0,0,1,3,32a2.46,2.46,0,0,1,.48-1.49,3.17,3.17,0,0,1,1.35-1,5,5,0,0,1,2-.38,4.76,4.76,0,0,1,2.68.72,2.66,2.66,0,0,1,1.24,2Z"
       transform="translate(-0.42 -0.43)"
       fill="#1d1d1b"
       style="fill:#ffffff" />
    <path
       id="Pfad_95351"
       data-name="Pfad 95351"
       d="M121.89,17.88V9.6a2.94,2.94,0,0,1,.43-1.6,3.1,3.1,0,0,1,1.18-1.09,3.58,3.58,0,0,1,1.7-.39,6.19,6.19,0,0,1,.76,0l.46.08v-2h-1.05a3.86,3.86,0,0,0-2.12.61A3.15,3.15,0,0,0,122,6.77h-.14v-2h-1.94V17.88Zm-8.11-.14a5,5,0,0,0,1.79-1.16,4.34,4.34,0,0,0,1-1.73l-2-.55a3.17,3.17,0,0,1-.72,1.14,3.08,3.08,0,0,1-1.11.68,4.35,4.35,0,0,1-1.44.23,4.15,4.15,0,0,1-2.14-.54,3.64,3.64,0,0,1-1.44-1.56,5.59,5.59,0,0,1-.51-2.51V10.58a4.38,4.38,0,0,1,.47-2A3.91,3.91,0,0,1,109.11,7a3.55,3.55,0,0,1,2.07-.59,3.48,3.48,0,0,1,1.9.5,3.38,3.38,0,0,1,1.25,1.37,4.37,4.37,0,0,1,.43,2h-8V12h10.09v-.86a8.39,8.39,0,0,0-.49-3.08,5.23,5.23,0,0,0-1.3-2A5.05,5.05,0,0,0,113.2,5a6.08,6.08,0,0,0-2-.34,5.56,5.56,0,0,0-3.09.86A5.82,5.82,0,0,0,106,7.89a8.13,8.13,0,0,0-.73,3.55A8,8,0,0,0,106,15a5.6,5.6,0,0,0,2.11,2.35,6.11,6.11,0,0,0,3.26.84,6.65,6.65,0,0,0,2.39-.41m-20.1-9A3.73,3.73,0,0,1,94.94,7,3.4,3.4,0,0,1,97,6.43a3.36,3.36,0,0,1,2.13.65,3.92,3.92,0,0,1,1.27,1.76,7,7,0,0,1,.42,2.49,7.05,7.05,0,0,1-.43,2.54,4.09,4.09,0,0,1-1.28,1.81,3.33,3.33,0,0,1-2.11.67,3.29,3.29,0,0,1-2-.64A3.88,3.88,0,0,1,93.69,14a7.3,7.3,0,0,1-.44-2.62,7.24,7.24,0,0,1,.43-2.57m-.46,9.12v-2h.24q.23.36.63.9a3.59,3.59,0,0,0,1.17,1,4.16,4.16,0,0,0,2,.42,5.07,5.07,0,0,0,2.89-.83,5.64,5.64,0,0,0,2-2.35,8.53,8.53,0,0,0,.7-3.6,8.41,8.41,0,0,0-.7-3.58,5.65,5.65,0,0,0-2-2.35,5.22,5.22,0,0,0-2.92-.82,4.1,4.1,0,0,0-2,.42,3.56,3.56,0,0,0-1.14,1c-.27.36-.47.65-.62.88H93.3V.43h-2V17.88Zm-8.31-.14a5,5,0,0,0,1.79-1.16,4.32,4.32,0,0,0,1-1.73l-1.94-.55a3.06,3.06,0,0,1-.73,1.14,3,3,0,0,1-1.11.68,4.35,4.35,0,0,1-1.44.23,4.11,4.11,0,0,1-2.13-.54,3.52,3.52,0,0,1-1.44-1.56,5.58,5.58,0,0,1-.52-2.51V10.58a4.51,4.51,0,0,1,.47-2A3.91,3.91,0,0,1,80.23,7a3.6,3.6,0,0,1,2.08-.59,3.48,3.48,0,0,1,1.9.5A3.36,3.36,0,0,1,85.45,8.3a4.37,4.37,0,0,1,.44,2h-8V12h10.1v-.86a8.61,8.61,0,0,0-.49-3.08,5.35,5.35,0,0,0-1.3-2A5.14,5.14,0,0,0,84.33,5a6.12,6.12,0,0,0-2-.34,5.62,5.62,0,0,0-3.1.86,5.8,5.8,0,0,0-2.06,2.41,8.13,8.13,0,0,0-.74,3.55A8,8,0,0,0,77.15,15a5.51,5.51,0,0,0,2.1,2.35,6.13,6.13,0,0,0,3.26.84,6.71,6.71,0,0,0,2.4-.41m-23.8.14L65,4h.13L69,17.88h2.18L75.9.43H73.75L70.11,14.64h-.17L66.22.43H63.83L60.12,14.64H60L56.3.43H54.15l4.77,17.45ZM35,4.79l4.16,6.54L35,17.88h2.32l3.13-5.08,3.14,5.08h2.32l-4.23-6.55,4.23-6.54H43.55l-3.14,5.35L37.28,4.79ZM24.42,15.85a1.8,1.8,0,0,1-.78-1.58,1.75,1.75,0,0,1,.41-1.22,2.55,2.55,0,0,1,1.09-.67,8.11,8.11,0,0,1,1.47-.33l.84-.11,1.09-.15a9.42,9.42,0,0,0,1-.21,1.24,1.24,0,0,0,.55-.28v1.84a3.1,3.1,0,0,1-.42,1.56,3.21,3.21,0,0,1-1.24,1.21,4.05,4.05,0,0,1-2,.47,3.47,3.47,0,0,1-2-.53m3.61,2A4.05,4.05,0,0,0,29.3,17a3.75,3.75,0,0,0,.68-.91h.1v1.77h2V9.25a5.14,5.14,0,0,0-.51-2.48A3.54,3.54,0,0,0,30.3,5.38a4.63,4.63,0,0,0-1.59-.61,8.3,8.3,0,0,0-1.46-.15,7.76,7.76,0,0,0-2,.27,5.26,5.26,0,0,0-1.88.93A4.63,4.63,0,0,0,22,7.69l1.91.68A3.75,3.75,0,0,1,25.06,7a3.63,3.63,0,0,1,2.26-.63,2.78,2.78,0,0,1,2.08.7,2.72,2.72,0,0,1,.68,2v.07a.71.71,0,0,1-.34.68,3.13,3.13,0,0,1-1.09.28l-1.94.23c-.61.08-1.21.19-1.81.32a6,6,0,0,0-1.64.6,3.18,3.18,0,0,0-1.19,1.11,3.38,3.38,0,0,0-.44,1.82,3.83,3.83,0,0,0,.6,2.18,3.72,3.72,0,0,0,1.61,1.37,5.15,5.15,0,0,0,2.25.48A5,5,0,0,0,28,17.85m-26.86,0h2V4.62h.17L8.78,17.88h1.91L16.14,4.62h.17V17.88h2V.43H15.77L9.83,14.91h-.2L3.7.43H1.17Z"
       transform="translate(-0.42 -0.43)"
       fill="#1d1d1b"
       style="fill:#ffffff" />
    <path
       id="Pfad_95352"
       data-name="Pfad 95352"
       d="M103,126.41v-7.6l-.16-.09-1.76.51v.39l1,.12v2.39a2.1,2.1,0,0,0-.7-.57,2,2,0,0,0-.77-.16,2.24,2.24,0,0,0-1,.21,2.43,2.43,0,0,0-.75.6,2.74,2.74,0,0,0-.51.92,3.87,3.87,0,0,0,0,2.3,2.68,2.68,0,0,0,.46.89,2.23,2.23,0,0,0,.73.57,2.06,2.06,0,0,0,.94.2,1.94,1.94,0,0,0,.91-.2,2,2,0,0,0,.66-.61l.08.76,1.76-.12v-.4Zm-1-.56a2.15,2.15,0,0,1-.61.49,1.45,1.45,0,0,1-.66.15,1.41,1.41,0,0,1-.62-.13,1.24,1.24,0,0,1-.49-.4,1.79,1.79,0,0,1-.32-.68,3.47,3.47,0,0,1-.12-1,3.63,3.63,0,0,1,.12-1,2,2,0,0,1,.34-.69,1.35,1.35,0,0,1,.49-.41,1.39,1.39,0,0,1,.6-.14,1.56,1.56,0,0,1,.58.13,2.66,2.66,0,0,1,.69.46Zm-5.58.55v-2.91a2.76,2.76,0,0,0-.36-1.6,1.24,1.24,0,0,0-1.08-.48,2.29,2.29,0,0,0-1.08.28,3.75,3.75,0,0,0-1,.74l-.09-.91-.17-.11-1.56.69v.39l.89.1v3.78l-.83.16v.4H93.8v-.4l-.8-.13V123a3.27,3.27,0,0,1,.79-.54,1.87,1.87,0,0,1,.76-.17.81.81,0,0,1,.71.3,2,2,0,0,1,.21,1.07v2.79l-.83.16v.4h2.61v-.4Zm-6.05-.17-.06.07a.83.83,0,0,1-.18.13.44.44,0,0,1-.23.06c-.25,0-.38-.22-.38-.66v-2.41a2.22,2.22,0,0,0-.42-1.53,1.76,1.76,0,0,0-1.32-.45,2.55,2.55,0,0,0-1.45.39,1.66,1.66,0,0,0-.74,1,.5.5,0,0,0,.15.35.52.52,0,0,0,.38.13q.45,0,.6-.54L87,122h.57a1.65,1.65,0,0,1,.43,0,.64.64,0,0,1,.32.21,1.09,1.09,0,0,1,.19.42,3.13,3.13,0,0,1,.06.67v.3l-.67.19-.59.18a6.141,6.141,0,0,0-.94.42,2.47,2.47,0,0,0-.57.41,1.22,1.22,0,0,0-.28.43,1.5,1.5,0,0,0-.08.47,1.48,1.48,0,0,0,.12.61,1.22,1.22,0,0,0,.33.44,1.33,1.33,0,0,0,.48.27,1.85,1.85,0,0,0,.58.09,2.14,2.14,0,0,0,.45,0,2.2,2.2,0,0,0,.39-.17,2.47,2.47,0,0,0,.38-.28l.42-.4a1.07,1.07,0,0,0,.35.62,1.13,1.13,0,0,0,.74.23.93.93,0,0,0,.91-.6Zm-1.8-.45-.41.29a2.863,2.863,0,0,1-.3.19,1.061,1.061,0,0,1-.26.1,1.089,1.089,0,0,1-.26,0,.93.93,0,0,1-.68-.26,1.341,1.341,0,0,1-.16-.23.9.9,0,0,1-.06-.36.84.84,0,0,1,0-.27.81.81,0,0,1,.14-.3,2,2,0,0,1,.33-.29,2.489,2.489,0,0,1,.59-.3l.46-.16.57-.17Zm-4.82.62v-5.95l.05-1.6-.16-.09-1.76.51v.39l.93.12v6.62l-.89.16v.4h2.77v-.4Zm-4.49-2.68a2.48,2.48,0,0,1-.81-.41.67.67,0,0,1-.23-.53.74.74,0,0,1,.26-.6,1.19,1.19,0,0,1,.78-.22,1.79,1.79,0,0,1,.79.19l.17.9h.59V121.9a3.48,3.48,0,0,0-.74-.34,2.73,2.73,0,0,0-.83-.12,2.35,2.35,0,0,0-.82.14,2,2,0,0,0-.62.36,1.58,1.58,0,0,0-.39.51,1.34,1.34,0,0,0-.14.62,1.23,1.23,0,0,0,.37.91,2.8,2.8,0,0,0,1,.59l.52.19a2.66,2.66,0,0,1,.8.42.68.68,0,0,1,.26.57.75.75,0,0,1-.31.63,1.58,1.58,0,0,1-1,.24,2.17,2.17,0,0,1-.91-.18l-.21-1h-.62v1.22a4.209,4.209,0,0,0,.82.34,3.35,3.35,0,0,0,.87.1,3,3,0,0,0,1-.13,2.14,2.14,0,0,0,.69-.36,1.46,1.46,0,0,0,.41-.52,1.48,1.48,0,0,0-.21-1.55,2.87,2.87,0,0,0-1.2-.72Zm-3.83,2.67v-4.72l-.11-.12-1.63.16v.39l.8.17v3.33a2.32,2.32,0,0,1-1.57.73.77.77,0,0,1-.68-.29A1.84,1.84,0,0,1,72,125v-3.31l-.11-.12-1.65.16v.39l.8.17v2.84a4.1,4.1,0,0,0,.1.94,1.53,1.53,0,0,0,.29.63,1.05,1.05,0,0,0,.46.35,1.75,1.75,0,0,0,.62.1,2.38,2.38,0,0,0,1-.24,3.1,3.1,0,0,0,1-.81l.12,1,1.56-.12v-.4Zm-6.25,0-2.41-7H66.1l-2.41,6.92-.95.14V127h2.58v-.46l-1.09-.14.63-1.85h2.59l.63,1.86-1.1.13V127H70v-.46ZM65,124l1.13-3.25,1.1,3.25Zm-6.32,2.42v-2.99a2.4,2.4,0,0,0-.38-1.51,1.28,1.28,0,0,0-1.06-.46,2.45,2.45,0,0,0-1.08.26,2.88,2.88,0,0,0-1,.8,1.33,1.33,0,0,0-.46-.81,1.38,1.38,0,0,0-.87-.25,2.12,2.12,0,0,0-1.05.28,3.49,3.49,0,0,0-.93.74l-.09-.91-.16-.11-1.57.69v.39l.89.1v3.78l-.83.16v.4H52.7v-.4l-.7-.18V123a4.22,4.22,0,0,1,.77-.54,1.68,1.68,0,0,1,.74-.17.81.81,0,0,1,.7.3,1.9,1.9,0,0,1,.22,1.07v2.8l-.84.16v.4H56.2v-.4l-.78-.16v-3.43a3.33,3.33,0,0,1,.79-.56,1.8,1.8,0,0,1,.73-.17.86.86,0,0,1,.71.29,1.79,1.79,0,0,1,.22,1.06v2.81l-.83.16v.4h2.61v-.4Zm-10.27,0v-4.85l-.17-.11-1.73.69v.39l.89.1v3.78l-.84.16v.4h2.61v-.4Zm0-6.37a.66.66,0,0,0,.22-.52.67.67,0,0,0-.22-.53.76.76,0,0,0-.54-.19.79.79,0,0,0-.54.19.761.761,0,0,0,0,1.05.76.76,0,0,0,.54.21.73.73,0,0,0,.54-.21m-5.7,4.21a.526.526,0,0,1,.06-.28,3.492,3.492,0,0,0,0-.35,2.59,2.59,0,0,0-.16-.91,2.06,2.06,0,0,0-.45-.69,1.86,1.86,0,0,0-.67-.42,2.25,2.25,0,0,0-.82-.15,2.47,2.47,0,0,0-1,.21,2.71,2.71,0,0,0-.82.6,2.84,2.84,0,0,0-.56.92,3.38,3.38,0,0,0-.2,1.17,3.49,3.49,0,0,0,.18,1.16,2.75,2.75,0,0,0,.5.89,2.21,2.21,0,0,0,.79.55,2.64,2.64,0,0,0,1,.19,2.37,2.37,0,0,0,1.32-.35,2.44,2.44,0,0,0,.84-1l-.27-.22a3.05,3.05,0,0,1-.67.59,1.67,1.67,0,0,1-.9.22,1.63,1.63,0,0,1-1.3-.56,2.46,2.46,0,0,1-.52-1.61Zm-3.58-.48a2.73,2.73,0,0,1,.2-.83,1.93,1.93,0,0,1,.36-.56,1.28,1.28,0,0,1,.46-.32,1.46,1.46,0,0,1,.49-.09,1.12,1.12,0,0,1,.48.1,1.46,1.46,0,0,1,.38.27,1.16,1.16,0,0,1,.26.39,1.18,1.18,0,0,1,.1.45.64.64,0,0,1-.14.42.68.68,0,0,1-.54.17Zm-2,2.42a1.27,1.27,0,0,1-.75.31.56.56,0,0,1-.46-.19,1,1,0,0,1-.16-.64v-3.42h1.53v-.6H35.87l.06-1.55h-.69L35,121.62l-1,.12v.5h.93v3.55a1.26,1.26,0,0,0,.35,1,1.36,1.36,0,0,0,.94.31,1.93,1.93,0,0,0,.77-.16,1.49,1.49,0,0,0,.55-.44Zm-4.63.21v-4.72l-.11-.12-1.63.16v.39l.8.17v3.33a2.32,2.32,0,0,1-1.57.73.77.77,0,0,1-.68-.29,1.84,1.84,0,0,1-.22-1.06v-3.31l-.11-.12-1.65.16v.39l.8.17v2.84a3.61,3.61,0,0,0,.1.94,1.53,1.53,0,0,0,.29.63,1.05,1.05,0,0,0,.46.35,1.75,1.75,0,0,0,.62.1,2.38,2.38,0,0,0,1-.24,3.1,3.1,0,0,0,1-.81l.12,1,1.56-.12v-.4Zm-5.83-.21a1.3,1.3,0,0,1-.75.31.56.56,0,0,1-.46-.19,1,1,0,0,1-.16-.64v-3.42h1.53v-.6H25.41l.06-1.55h-.69l-.28,1.53-1,.12v.5h.93v3.55a1.25,1.25,0,0,0,.34,1,1.4,1.4,0,0,0,.94.31,1.89,1.89,0,0,0,.77-.16,1.45,1.45,0,0,0,.56-.44Zm-4.6.22v-4.85l-.17-.11-1.73.69v.39l.89.1v3.78l-.84.16v.4h2.61v-.4Zm0-6.37a.66.66,0,0,0,.22-.52.67.67,0,0,0-.22-.53.76.76,0,0,0-.54-.19.79.79,0,0,0-.54.19.761.761,0,0,0,0,1.05.76.76,0,0,0,.54.21.73.73,0,0,0,.54-.21M19.4,126.2a1.3,1.3,0,0,1-.76.31.55.55,0,0,1-.45-.19,1,1,0,0,1-.17-.64v-3.42h1.53v-.6h-1.5v-1.55h-.68l-.29,1.53-1,.12v.5h.94v3.55a1.25,1.25,0,0,0,.34,1,1.38,1.38,0,0,0,.94.31,1.93,1.93,0,0,0,.77-.16,1.53,1.53,0,0,0,.56-.44Zm-5.81-2.46a2.48,2.48,0,0,1-.81-.41.65.65,0,0,1-.24-.53.72.72,0,0,1,.27-.6,1.19,1.19,0,0,1,.78-.22,1.79,1.79,0,0,1,.79.19l.17.9h.58l.05-1.15a3.551,3.551,0,0,0-.75-.34,2.64,2.64,0,0,0-.83-.12,2.29,2.29,0,0,0-.81.14,1.88,1.88,0,0,0-.62.36,1.77,1.77,0,0,0-.4.51,1.48,1.48,0,0,0-.14.62A1.27,1.27,0,0,0,12,124a2.8,2.8,0,0,0,1,.59l.52.19a2.74,2.74,0,0,1,.81.42.7.7,0,0,1,.26.57.75.75,0,0,1-.31.63,1.58,1.58,0,0,1-1,.24,2.14,2.14,0,0,1-.91-.18l-.22-1h-.61v1.22a4,4,0,0,0,.82.34,3.25,3.25,0,0,0,.87.1,3.069,3.069,0,0,0,.95-.13,2.09,2.09,0,0,0,.68-.36,1.35,1.35,0,0,0,.41-.52,1.44,1.44,0,0,0-.2-1.55,2.87,2.87,0,0,0-1.2-.72Zm-3.8,2.68v-2.91a2.76,2.76,0,0,0-.36-1.6,1.25,1.25,0,0,0-1.08-.48,2.29,2.29,0,0,0-1.08.28,3.75,3.75,0,0,0-1,.74l-.09-.91-.17-.11-1.56.69v.39l.89.1v3.78l-.83.16v.4H7.28v-.4l-.79-.16V123a3.27,3.27,0,0,1,.79-.54,1.83,1.83,0,0,1,.76-.17.82.82,0,0,1,.71.3,2,2,0,0,1,.21,1.07v2.79l-.83.16v.4H10.7v-.4Zm-6.3-6.5v-.46H.42v.46l1,.12v6.39l-1,.12V127H3.61v-.46l-1-.12v-6.36Z"
       transform="translate(-0.42 -0.43)"
       fill="#1d1d1b"
       style="fill:#ffffff" />
    <path
       id="Pfad_95353"
       data-name="Pfad 95353"
       d="M126.67,109.24a.526.526,0,0,1,.06-.28,3.494,3.494,0,0,0,0-.35,2.59,2.59,0,0,0-.16-.91,2.06,2.06,0,0,0-.45-.69,1.86,1.86,0,0,0-.67-.42,2.25,2.25,0,0,0-.82-.15,2.47,2.47,0,0,0-1,.21,2.71,2.71,0,0,0-.82.6,2.84,2.84,0,0,0-.56.92,3.38,3.38,0,0,0-.2,1.17,3.49,3.49,0,0,0,.18,1.16,2.75,2.75,0,0,0,.5.89,2.21,2.21,0,0,0,.79.55,2.64,2.64,0,0,0,1,.19,2.37,2.37,0,0,0,1.32-.35,2.44,2.44,0,0,0,.84-1l-.27-.22a3.05,3.05,0,0,1-.67.59,1.67,1.67,0,0,1-.9.22,1.63,1.63,0,0,1-1.3-.56,2.46,2.46,0,0,1-.52-1.61Zm-3.58-.48a2.73,2.73,0,0,1,.2-.83,1.93,1.93,0,0,1,.36-.56,1.28,1.28,0,0,1,.46-.32,1.46,1.46,0,0,1,.49-.09,1.12,1.12,0,0,1,.48.1,1.461,1.461,0,0,1,.38.27,1.16,1.16,0,0,1,.26.39,1.18,1.18,0,0,1,.1.45.64.64,0,0,1-.14.42.68.68,0,0,1-.54.17Zm-2.81,2.64v-2.91a2.76,2.76,0,0,0-.36-1.6,1.24,1.24,0,0,0-1.08-.48,2.34,2.34,0,0,0-1.09.29,3.24,3.24,0,0,0-1,.76v-3.6l-.15-.09-1.72.51v.39l.92.12v6.62l-.85.16v.4h2.61v-.4l-.77-.16V108a4.1,4.1,0,0,1,.82-.57,1.92,1.92,0,0,1,.78-.17.81.81,0,0,1,.71.3,2,2,0,0,1,.21,1.07v2.79l-.83.16v.4h2.61v-.4Zm-6.24-.86a1.89,1.89,0,0,1-.67.65,1.78,1.78,0,0,1-.89.22,1.69,1.69,0,0,1-1.3-.56,2.45,2.45,0,0,1-.5-1.65,2.6,2.6,0,0,1,.47-1.67,1.62,1.62,0,0,1,1.49-.55,1.23,1.23,0,0,1,.32.07l.2.74a.89.89,0,0,0,.19.39.54.54,0,0,0,.42.15.46.46,0,0,0,.51-.43,1.52,1.52,0,0,0-.22-.58,1.87,1.87,0,0,0-.43-.46,2.33,2.33,0,0,0-.61-.31,2.48,2.48,0,0,0-.73-.11,2.51,2.51,0,0,0-1,.2,2.46,2.46,0,0,0-.83.57,2.54,2.54,0,0,0-.58.9,3.29,3.29,0,0,0-.22,1.2,3.49,3.49,0,0,0,.18,1.16,2.49,2.49,0,0,0,.51.9,2.14,2.14,0,0,0,.79.57,2.71,2.71,0,0,0,1,.19,2.31,2.31,0,0,0,1.35-.37,2.06,2.06,0,0,0,.76-1.08Zm-6.11.86v-4.85l-.17-.11-1.73.69v.39l.89.1v3.78l-.85.16v.4h2.61v-.4Zm0-6.37a.74.74,0,0,0,0-1,.86.86,0,0,0-1.08,0,.761.761,0,0,0,0,1.05.8.8,0,0,0,1.08,0m-3.54,6.37v-7.5l-.16-.09-1.75.51v.39l.92.12v6.62l-.89.16v.4h2.77v-.4Zm-2.58-.22a3,3,0,0,1-.38.23.65.65,0,0,1-.35.08.62.62,0,0,1-.48-.19,1,1,0,0,1-.17-.64v-3.42H102v-.6h-1.51l.06-1.55h-.69l-.28,1.55H97.13a5,5,0,0,1,.09-1.31,2.45,2.45,0,0,1,.29-.8,1.42,1.42,0,0,1,.38-.45l.28.22a2,2,0,0,0,.41.26,1,1,0,0,0,.41.09.78.78,0,0,0,.48-.14.53.53,0,0,0,.2-.38.69.69,0,0,0-.39-.46,1.68,1.68,0,0,0-.7-.13,2.59,2.59,0,0,0-.8.14,2,2,0,0,0-.78.54,2.24,2.24,0,0,0-.31.43,2.39,2.39,0,0,0-.23.51,5.209,5.209,0,0,0-.15.65c0,.24-.07.51-.1.81l-.94.12v.5h.92v4.16l-.89.16v.4h2.89v-.4l-1-.17v-4.15h2.36v3.55a1.29,1.29,0,0,0,.34,1,1.47,1.47,0,0,0,1,.31,1.73,1.73,0,0,0,.72-.16,1.41,1.41,0,0,0,.55-.44Zm-7.37,0v.07l-.18.13a.48.48,0,0,1-.24.06c-.25,0-.37-.22-.37-.66v-2.41a2.17,2.17,0,0,0-.43-1.53,1.72,1.72,0,0,0-1.31-.45,2.58,2.58,0,0,0-1.46.39,1.7,1.7,0,0,0-.74,1,.55.55,0,0,0,.16.35.49.49,0,0,0,.37.13c.3,0,.5-.18.61-.54l.22-.79h.58a1.63,1.63,0,0,1,.47.06.67.67,0,0,1,.33.21,1.09,1.09,0,0,1,.18.42,3.13,3.13,0,0,1,.06.67v.3l-.67.19-.59.18a6.622,6.622,0,0,0-.94.42,2.19,2.19,0,0,0-.56.41,1.26,1.26,0,0,0-.29.43,1.69,1.69,0,0,0,0,1.08,1.22,1.22,0,0,0,.33.44,1.42,1.42,0,0,0,.48.27,1.9,1.9,0,0,0,.58.09,1.53,1.53,0,0,0,.85-.22,4.07,4.07,0,0,0,.38-.28l.42-.4a1.06,1.06,0,0,0,.34.62,1.14,1.14,0,0,0,.75.23,1,1,0,0,0,.49-.12,1.13,1.13,0,0,0,.42-.48Zm-1.8-.45c-.15.12-.29.21-.4.29a2.9,2.9,0,0,1-.31.19.871.871,0,0,1-.25.1,1.15,1.15,0,0,1-.26,0,.94.94,0,0,1-.69-.26.91.91,0,0,1-.15-.23.9.9,0,0,1-.06-.36,1.241,1.241,0,0,1,0-.27.71.71,0,0,1,.15-.3,1.41,1.41,0,0,1,.33-.29,2.15,2.15,0,0,1,.59-.3l.45-.16.57-.17Zm-4.89.62v-2.91a2.76,2.76,0,0,0-.36-1.6,1.25,1.25,0,0,0-1.08-.48,2.34,2.34,0,0,0-1.09.29,3.24,3.24,0,0,0-1,.76v-3.6l-.15-.09-1.73.51v.39l.93.12v6.62l-.84.16v.4h2.61v-.4l-.78-.16V108a4.1,4.1,0,0,1,.82-.57,1.92,1.92,0,0,1,.78-.17.81.81,0,0,1,.71.3,2,2,0,0,1,.21,1.07v2.79l-.83.16v.4h2.61v-.4Zm-6.24-.86a1.89,1.89,0,0,1-.67.65,1.78,1.78,0,0,1-.89.22,1.69,1.69,0,0,1-1.3-.56,2.45,2.45,0,0,1-.5-1.65,2.6,2.6,0,0,1,.47-1.67,1.62,1.62,0,0,1,1.49-.55,1.23,1.23,0,0,1,.32.07l.2.74a.89.89,0,0,0,.19.39.54.54,0,0,0,.42.15.46.46,0,0,0,.51-.43,1.52,1.52,0,0,0-.22-.58,1.74,1.74,0,0,0-.44-.46,2.12,2.12,0,0,0-.6-.31,2.51,2.51,0,0,0-2.53.66,2.54,2.54,0,0,0-.58.9,3.09,3.09,0,0,0-.22,1.2,3.49,3.49,0,0,0,.18,1.16,2.47,2.47,0,0,0,.5.9,2.17,2.17,0,0,0,.8.57,2.68,2.68,0,0,0,1,.19,2.31,2.31,0,0,0,1.35-.37,2.06,2.06,0,0,0,.76-1.08Zm-7.32-1.82a2.48,2.48,0,0,1-.81-.41.64.64,0,0,1-.23-.53.71.71,0,0,1,.26-.6,1.19,1.19,0,0,1,.78-.22,1.79,1.79,0,0,1,.79.19l.17.9h.58V106.9a3.73,3.73,0,0,0-.74-.34,2.73,2.73,0,0,0-.83-.12,2.31,2.31,0,0,0-.82.14,1.88,1.88,0,0,0-.62.36,1.58,1.58,0,0,0-.39.51,1.34,1.34,0,0,0-.14.62,1.23,1.23,0,0,0,.37.91,2.63,2.63,0,0,0,1,.59l.51.19a2.74,2.74,0,0,1,.81.42.7.7,0,0,1,.26.57.75.75,0,0,1-.31.63,1.58,1.58,0,0,1-1,.24,2.17,2.17,0,0,1-.91-.18l-.21-1H72.2v1.22a4.21,4.21,0,0,0,.82.34,3.35,3.35,0,0,0,.87.1,3,3,0,0,0,1-.13,2.25,2.25,0,0,0,.69-.36,1.46,1.46,0,0,0,.41-.52,1.48,1.48,0,0,0-.21-1.55,2.87,2.87,0,0,0-1.2-.72Zm-3.8,2.68v-2.91a2.76,2.76,0,0,0-.36-1.6,1.24,1.24,0,0,0-1.08-.48,2.29,2.29,0,0,0-1.08.28,3.75,3.75,0,0,0-.95.74l-.09-.91-.17-.11-1.56.69v.39l.89.1v3.78l-.83.16v.4h2.61v-.4L67,111.4V108a3.27,3.27,0,0,1,.79-.54,1.83,1.83,0,0,1,.76-.17.81.81,0,0,1,.71.3,2,2,0,0,1,.21,1.07v2.79l-.83.16v.4h2.61v-.4ZM64,109.24a1.781,1.781,0,0,0,0-.28,1.831,1.831,0,0,0,0-.35,2.38,2.38,0,0,0-.17-.91,1.9,1.9,0,0,0-.44-.69,1.86,1.86,0,0,0-.67-.42,2.27,2.27,0,0,0-.83-.15,2.46,2.46,0,0,0-1,.21,2.71,2.71,0,0,0-.82.6,2.68,2.68,0,0,0-.56.92,3.16,3.16,0,0,0-.2,1.17,3.49,3.49,0,0,0,.18,1.16,2.57,2.57,0,0,0,.5.89,2.21,2.21,0,0,0,.79.55,2.63,2.63,0,0,0,1,.19,2.38,2.38,0,0,0,1.33-.35,2.35,2.35,0,0,0,.83-1l-.27-.22a2.8,2.8,0,0,1-.66.59,1.67,1.67,0,0,1-.9.22,1.63,1.63,0,0,1-1.3-.56,2.41,2.41,0,0,1-.52-1.61Zm-3.58-.48a2.73,2.73,0,0,1,.2-.83,1.93,1.93,0,0,1,.36-.56,1.28,1.28,0,0,1,.46-.32,1.46,1.46,0,0,1,.49-.09,1.12,1.12,0,0,1,.48.1,1.46,1.46,0,0,1,.38.27,1.33,1.33,0,0,1,.26.39,1.17,1.17,0,0,1,.09.45.64.64,0,0,1-.13.42.68.68,0,0,1-.54.17Zm-4,0a2.55,2.55,0,0,1-.82-.41.67.67,0,0,1-.23-.53.74.74,0,0,1,.26-.6,1.2,1.2,0,0,1,.79-.22,1.79,1.79,0,0,1,.78.19l.17.9H58v-1.15a3.48,3.48,0,0,0-.74-.34,2.73,2.73,0,0,0-.83-.12,2.35,2.35,0,0,0-.82.14,2,2,0,0,0-.62.36,1.58,1.58,0,0,0-.39.51,1.48,1.48,0,0,0-.14.62,1.23,1.23,0,0,0,.37.91,2.8,2.8,0,0,0,1,.59l.52.19a2.54,2.54,0,0,1,.8.42.68.68,0,0,1,.27.57.76.76,0,0,1-.32.63,1.58,1.58,0,0,1-1,.24,2.21,2.21,0,0,1-.91-.18l-.21-1H54.4v1.22a4.21,4.21,0,0,0,.82.34,3.35,3.35,0,0,0,.87.1,3,3,0,0,0,1-.13,2,2,0,0,0,.69-.36,1.46,1.46,0,0,0,.41-.52,1.48,1.48,0,0,0-.21-1.55,2.87,2.87,0,0,0-1.2-.72Zm-5,0a2.67,2.67,0,0,1-.82-.41.67.67,0,0,1-.23-.53.72.72,0,0,1,.27-.6,1.15,1.15,0,0,1,.78-.22,1.83,1.83,0,0,1,.79.19l.17.9H53v-1.15a3.55,3.55,0,0,0-.75-.34,2.64,2.64,0,0,0-.83-.12,2.29,2.29,0,0,0-.81.14,1.88,1.88,0,0,0-.62.36,1.77,1.77,0,0,0-.4.51,1.48,1.48,0,0,0-.14.62,1.27,1.27,0,0,0,.37.91,2.8,2.8,0,0,0,1,.59l.52.19a2.74,2.74,0,0,1,.81.42.7.7,0,0,1,.26.57.76.76,0,0,1-.32.63,1.54,1.54,0,0,1-1,.24,2.14,2.14,0,0,1-.91-.18l-.22-1h-.62v1.22a4.139,4.139,0,0,0,.81.34,3.38,3.38,0,0,0,.88.1,3.07,3.07,0,0,0,1-.13,2.09,2.09,0,0,0,.68-.36,1.35,1.35,0,0,0,.41-.52,1.43,1.43,0,0,0,.14-.61,1.49,1.49,0,0,0-.34-.94,2.87,2.87,0,0,0-1.2-.72Zm-3.8,2.68v-4.85l-.17-.11-1.73.69v.39l.89.1v3.78l-.85.16v.4h2.61v-.4Zm0-6.37a.761.761,0,0,0,0-1.05.86.86,0,0,0-1.08,0,.761.761,0,0,0,0,1.05.8.8,0,0,0,1.08,0m-2.49,1.61H43.09v.46l.85.14-1.07,3.42-1.28-3.42.84-.14v-.46H39.94v.46l.84.13-1.26,3.45-1.17-3.45.87-.13v-.46H36.66v.46l.64.11,1.81,4.87h.42L41,108.16l1.51,3.92h.41l1.66-4.84.61-.14Zm-10.94,2.08a2.67,2.67,0,0,1-.82-.41.67.67,0,0,1-.23-.53.72.72,0,0,1,.27-.6,1.15,1.15,0,0,1,.78-.22,1.83,1.83,0,0,1,.79.19l.16.9h.59v-1.15a3.27,3.27,0,0,0-.74-.34,2.68,2.68,0,0,0-.83-.12,2.39,2.39,0,0,0-.82.14,1.83,1.83,0,0,0-.61.36,1.77,1.77,0,0,0-.4.51,1.48,1.48,0,0,0-.14.62,1.23,1.23,0,0,0,.37.91,2.8,2.8,0,0,0,1,.59l.52.19a2.54,2.54,0,0,1,.8.42.68.68,0,0,1,.27.57.76.76,0,0,1-.32.63,1.56,1.56,0,0,1-1,.24,2.14,2.14,0,0,1-.91-.18l-.22-1h-.62v1.22a3.9,3.9,0,0,0,.92.3,3.35,3.35,0,0,0,.87.1,3.14,3.14,0,0,0,1-.13,2.09,2.09,0,0,0,.68-.36,1.35,1.35,0,0,0,.41-.52,1.42,1.42,0,0,0-.21-1.55,2.76,2.76,0,0,0-1.19-.72Zm-3.28.52A1.06,1.06,0,0,0,31,109a1.89,1.89,0,0,0,0-.35,2.38,2.38,0,0,0-.16-.91,2.21,2.21,0,0,0-.44-.69,1.86,1.86,0,0,0-.67-.42,2.31,2.31,0,0,0-.83-.15,2.42,2.42,0,0,0-1,.21,2.76,2.76,0,0,0-.83.6,3,3,0,0,0-.56.92,3.38,3.38,0,0,0-.2,1.17,3.49,3.49,0,0,0,.18,1.16,2.59,2.59,0,0,0,.51.89,2.21,2.21,0,0,0,.79.55,2.59,2.59,0,0,0,1,.19,2.214,2.214,0,0,0,2.16-1.35l-.27-.22a2.8,2.8,0,0,1-.66.59,1.67,1.67,0,0,1-.9.22,1.65,1.65,0,0,1-1.31-.56,2.46,2.46,0,0,1-.52-1.61Zm-3.57-.48a2.74,2.74,0,0,1,.19-.83,2.46,2.46,0,0,1,.36-.56,1.31,1.31,0,0,1,.47-.32,1.4,1.4,0,0,1,.48-.09,1.06,1.06,0,0,1,.48.1,1.36,1.36,0,0,1,.39.27,1.3,1.3,0,0,1,.25.39,1,1,0,0,1,.1.45.64.64,0,0,1-.14.42.68.68,0,0,1-.54.17Zm-2,2.42a1.3,1.3,0,0,1-.76.31.55.55,0,0,1-.45-.19,1,1,0,0,1-.16-.64v-3.42H25.5v-.6H24l.05-1.55h-.68l-.28,1.53-1,.12v.5h.93v3.55a1.25,1.25,0,0,0,.34,1,1.38,1.38,0,0,0,.94.31,1.93,1.93,0,0,0,.77-.16,1.45,1.45,0,0,0,.56-.44Zm-5.81-2.46a2.48,2.48,0,0,1-.81-.41.64.64,0,0,1-.23-.53.71.71,0,0,1,.26-.6,1.19,1.19,0,0,1,.78-.22,1.79,1.79,0,0,1,.79.19l.17.9h.58l.05-1.15a3.73,3.73,0,0,0-.74-.34,2.75,2.75,0,0,0-.84-.12,2.29,2.29,0,0,0-.81.14,1.88,1.88,0,0,0-.62.36,1.58,1.58,0,0,0-.39.51,1.34,1.34,0,0,0-.14.62A1.23,1.23,0,0,0,18,109a2.63,2.63,0,0,0,1,.59l.51.19a2.74,2.74,0,0,1,.81.42.7.7,0,0,1,.26.57.75.75,0,0,1-.31.63,1.58,1.58,0,0,1-1,.24,2.17,2.17,0,0,1-.91-.18l-.21-1h-.62v1.22a4.209,4.209,0,0,0,.82.34,3.35,3.35,0,0,0,.87.1,3,3,0,0,0,.95-.13,2.25,2.25,0,0,0,.69-.36,1.46,1.46,0,0,0,.41-.52,1.48,1.48,0,0,0-.21-1.55,2.87,2.87,0,0,0-1.2-.72Zm-3.8,2.68v-4.85l-.17-.11-1.73.69v.39l.89.1v3.78l-.84.16v.4h2.61v-.4Zm0-6.37a.66.66,0,0,0,.22-.52.67.67,0,0,0-.22-.53.76.76,0,0,0-.54-.19.79.79,0,0,0-.54.19.761.761,0,0,0,0,1.05.76.76,0,0,0,.54.21.73.73,0,0,0,.54-.21m-3,4.21a1.06,1.06,0,0,0,.06-.28,1.89,1.89,0,0,0,0-.35,2.38,2.38,0,0,0-.16-.91,2.21,2.21,0,0,0-.44-.69,2,2,0,0,0-.67-.42,2.31,2.31,0,0,0-.83-.15,2.42,2.42,0,0,0-1,.21,2.76,2.76,0,0,0-.83.6,2.84,2.84,0,0,0-.56.92,3.38,3.38,0,0,0-.2,1.17,3.49,3.49,0,0,0,.18,1.16,2.59,2.59,0,0,0,.51.89,2.21,2.21,0,0,0,.79.55,2.59,2.59,0,0,0,1,.19,2.214,2.214,0,0,0,2.16-1.35l-.27-.22a2.8,2.8,0,0,1-.66.59,1.67,1.67,0,0,1-.9.22,1.65,1.65,0,0,1-1.31-.56,2.46,2.46,0,0,1-.52-1.61Zm-3.57-.48a2.74,2.74,0,0,1,.19-.83,1.93,1.93,0,0,1,.36-.56,1.37,1.37,0,0,1,.46-.32,1.5,1.5,0,0,1,.49-.09,1.06,1.06,0,0,1,.48.1,1.19,1.19,0,0,1,.38.27,1.16,1.16,0,0,1,.26.39,1,1,0,0,1,.1.45.64.64,0,0,1-.14.42.68.68,0,0,1-.54.17Zm-1.85-.36H4.47v.45l1.16.1v2.36a3.24,3.24,0,0,1-1.2.23,2.53,2.53,0,0,1-2-.87,3.69,3.69,0,0,1-.75-2.48,4.55,4.55,0,0,1,.21-1.44,3.1,3.1,0,0,1,.56-1,2.51,2.51,0,0,1,1.94-.88,3.531,3.531,0,0,1,.67.07,2.6,2.6,0,0,1,.62.23l.22,1.3h.7v-1.63a4,4,0,0,0-1-.41,5.1,5.1,0,0,0-1.23-.13,4,4,0,0,0-1.57.3,3.61,3.61,0,0,0-1.2.82,3.65,3.65,0,0,0-.79,1.25,4.67,4.67,0,0,0,0,3.13A3.72,3.72,0,0,0,1.5,111a3.53,3.53,0,0,0,1.2.83,4,4,0,0,0,1.54.29,4.49,4.49,0,0,0,1.3-.18,7.21,7.21,0,0,0,1.17-.48V109l.68-.07Z"
       transform="translate(-0.42 -0.43)"
       fill="#1d1d1b"
       style="fill:#ffffff" />
    <path
       id="Pfad_95354"
       data-name="Pfad 95354"
       d="M46.84,94.24a.526.526,0,0,1,.06-.28,3.491,3.491,0,0,0,0-.35,2.42,2.42,0,0,0-.16-.91,1.92,1.92,0,0,0-.45-.68,1.88,1.88,0,0,0-.67-.43,2.25,2.25,0,0,0-.82-.15,2.33,2.33,0,0,0-1,.22,2.53,2.53,0,0,0-.82.59,2.84,2.84,0,0,0-.56.92,3.38,3.38,0,0,0-.2,1.17,3.49,3.49,0,0,0,.18,1.16,2.75,2.75,0,0,0,.5.89,2.09,2.09,0,0,0,.79.55,2.64,2.64,0,0,0,1,.19,2.34,2.34,0,0,0,1.32-.35,2.44,2.44,0,0,0,.84-1l-.27-.22a3.05,3.05,0,0,1-.67.59,1.67,1.67,0,0,1-.9.22,1.63,1.63,0,0,1-1.3-.56,2.46,2.46,0,0,1-.52-1.61Zm-3.58-.48a2.73,2.73,0,0,1,.2-.83,1.93,1.93,0,0,1,.36-.56,1.28,1.28,0,0,1,.46-.32,1.46,1.46,0,0,1,.49-.09,1.12,1.12,0,0,1,.48.1,1.31,1.31,0,0,1,.38.27,1.16,1.16,0,0,1,.26.39,1.18,1.18,0,0,1,.1.45.64.64,0,0,1-.14.42.68.68,0,0,1-.54.17ZM40.45,96.4V93.49a2.7,2.7,0,0,0-.36-1.59A1.22,1.22,0,0,0,39,91.44a2.34,2.34,0,0,0-1.09.29,3.24,3.24,0,0,0-1,.76v-3.6l-.16-.09-1.72.51v.39l.92.12V96.4l-.85.16V97h2.61v-.41L37,96.4V93a3.87,3.87,0,0,1,.83-.57,1.84,1.84,0,0,1,.77-.17.81.81,0,0,1,.71.3,2,2,0,0,1,.21,1.07v2.79l-.83.16V97H41.3v-.41Zm-6.24-.86a1.89,1.89,0,0,1-.67.65,1.77,1.77,0,0,1-.88.22,1.66,1.66,0,0,1-1.3-.56,2.4,2.4,0,0,1-.5-1.65,2.62,2.62,0,0,1,.46-1.67A1.62,1.62,0,0,1,32.81,92a1.231,1.231,0,0,1,.32.07l.2.74a.89.89,0,0,0,.19.39.54.54,0,0,0,.42.15.48.48,0,0,0,.52-.43,1.72,1.72,0,0,0-.23-.58,1.87,1.87,0,0,0-.43-.46,2.33,2.33,0,0,0-.61-.31,2.48,2.48,0,0,0-.73-.11,2.51,2.51,0,0,0-1,.2,2.46,2.46,0,0,0-.83.57,2.54,2.54,0,0,0-.58.9,3.29,3.29,0,0,0-.21,1.2A3.49,3.49,0,0,0,30,95.47a2.49,2.49,0,0,0,.51.9,2.14,2.14,0,0,0,.79.57,2.73,2.73,0,0,0,1.05.19,2.28,2.28,0,0,0,1.34-.37,1.93,1.93,0,0,0,.76-1.08ZM26.9,93.73a2.62,2.62,0,0,1-.82-.42.66.66,0,0,1-.23-.53.75.75,0,0,1,.26-.6A1.2,1.2,0,0,1,26.9,92a1.79,1.79,0,0,1,.78.19l.17.9h.59V91.94a3.48,3.48,0,0,0-.74-.34,2.73,2.73,0,0,0-.83-.12,2.35,2.35,0,0,0-.82.14,2,2,0,0,0-.62.36,1.58,1.58,0,0,0-.39.51,1.37,1.37,0,0,0-.14.62,1.23,1.23,0,0,0,.37.91,2.8,2.8,0,0,0,1,.59l.52.19a2.91,2.91,0,0,1,.8.42.68.68,0,0,1,.27.57.76.76,0,0,1-.32.63,1.58,1.58,0,0,1-1,.24,2.21,2.21,0,0,1-.91-.18l-.21-1H24.8v1.23a4.13,4.13,0,0,0,.82.33,3.35,3.35,0,0,0,.87.1,3,3,0,0,0,.95-.13,2.14,2.14,0,0,0,.69-.36,1.46,1.46,0,0,0,.41-.52,1.48,1.48,0,0,0-.21-1.55,2.87,2.87,0,0,0-1.2-.72Zm-3,2.45a1.25,1.25,0,0,1-.75.31.58.58,0,0,1-.46-.19,1.09,1.09,0,0,1-.16-.64V92.24h1.53v-.6h-1.5l.06-1.55h-.69l-.28,1.53-1,.13v.49h.94V95.8a1.25,1.25,0,0,0,.35,1,1.38,1.38,0,0,0,.94.31,1.77,1.77,0,0,0,.77-.16,1.33,1.33,0,0,0,.55-.44Zm-4.63.21V91.67l-.11-.12-1.63.16v.4l.8.16V95.6a2.33,2.33,0,0,1-1.57.74.78.78,0,0,1-.68-.3A1.82,1.82,0,0,1,15.86,95V93.24l.06-1.57-.12-.12-1.65.16v.4l.8.16v2.84a4.1,4.1,0,0,0,.1.94,1.53,1.53,0,0,0,.29.63,1.05,1.05,0,0,0,.46.35,1.75,1.75,0,0,0,.62.1,2.38,2.38,0,0,0,1-.24,3.1,3.1,0,0,0,1-.81l.12,1L20.06,97v-.41Zm-6.12-2.15a.526.526,0,0,1,.06-.28,3.49,3.49,0,0,0,0-.35,2.42,2.42,0,0,0-.17-.91,1.78,1.78,0,0,0-.44-.68,1.88,1.88,0,0,0-.67-.43,2.27,2.27,0,0,0-.83-.15,2.31,2.31,0,0,0-1,.22,2.53,2.53,0,0,0-.82.59,2.68,2.68,0,0,0-.56.92,3.16,3.16,0,0,0-.2,1.17A3.49,3.49,0,0,0,8.7,95.5a2.75,2.75,0,0,0,.5.89,2.09,2.09,0,0,0,.79.55,2.64,2.64,0,0,0,1,.19,2.37,2.37,0,0,0,1.32-.35,2.44,2.44,0,0,0,.84-1L13,95.6a3.05,3.05,0,0,1-.67.59,1.67,1.67,0,0,1-.9.22,1.63,1.63,0,0,1-1.3-.56,2.41,2.41,0,0,1-.52-1.61Zm-3.58-.48a2.73,2.73,0,0,1,.2-.83,1.93,1.93,0,0,1,.36-.56,1.28,1.28,0,0,1,.46-.32,1.46,1.46,0,0,1,.49-.09,1.12,1.12,0,0,1,.48.1,1.46,1.46,0,0,1,.38.27,1.33,1.33,0,0,1,.26.39,1.17,1.17,0,0,1,.09.45.64.64,0,0,1-.13.42.68.68,0,0,1-.54.17ZM.42,89.44v.46l1,.12v6.36l-1,.12V97H3.53A4.61,4.61,0,0,0,5,96.72,3.62,3.62,0,0,0,6.25,96a3.47,3.47,0,0,0,.82-1.18,3.92,3.92,0,0,0,.31-1.61,4.5,4.5,0,0,0-.28-1.62,3.21,3.21,0,0,0-.76-1.17,3,3,0,0,0-1.15-.72,4,4,0,0,0-1.44-.25Zm2.14,7V89.97h1a2.57,2.57,0,0,1,1.06.21,2.16,2.16,0,0,1,.83.61,3.06,3.06,0,0,1,.52,1,4.6,4.6,0,0,1,.19,1.4A4.54,4.54,0,0,1,6,94.6a2.76,2.76,0,0,1-.52,1,2.23,2.23,0,0,1-.81.62,2.65,2.65,0,0,1-1.07.21Z"
       transform="translate(-0.42 -0.43)"
       fill="#1d1d1b"
       style="fill:#ffffff" />
    <path
       id="Pfad_95355"
       data-name="Pfad 95355"
       d="M126.09,68.72a1.64,1.64,0,0,0,.55-.56,1.52,1.52,0,0,0-.24-1.85,1.54,1.54,0,0,0-2.62,1.08,1.51,1.51,0,0,0,.45,1.09,1.53,1.53,0,0,0,1.86.24m-13.68,0a1.67,1.67,0,0,0,.56-.56,1.55,1.55,0,0,0,.2-.77,1.53,1.53,0,1,0-3.06,0,1.531,1.531,0,0,0,2.3,1.33m-13.67,0a1.64,1.64,0,0,0,.55-.56A1.53,1.53,0,0,0,98,65.86a1.5,1.5,0,0,0-1.09.45,1.47,1.47,0,0,0-.45,1.08A1.536,1.536,0,0,0,98,68.93a1.46,1.46,0,0,0,.77-.21m-13.68,0a1.67,1.67,0,0,0,.56-.56,1.46,1.46,0,0,0,.21-.77,1.54,1.54,0,0,0-3.07,0,1.51,1.51,0,0,0,.45,1.09,1.47,1.47,0,0,0,1.08.45,1.44,1.44,0,0,0,.77-.21m-13.67,0a1.64,1.64,0,0,0,.55-.56,1.53,1.53,0,0,0-1.32-2.3,1.51,1.51,0,0,0-1.09.45,1.47,1.47,0,0,0-.45,1.08,1.54,1.54,0,0,0,1.54,1.54,1.46,1.46,0,0,0,.77-.21m-13.68,0a1.67,1.67,0,0,0,.56-.56,1.46,1.46,0,0,0,.21-.77A1.44,1.44,0,0,0,58,66.31a1.53,1.53,0,0,0-2.61,1.08,1.51,1.51,0,0,0,.45,1.09,1.47,1.47,0,0,0,1.08.45,1.44,1.44,0,0,0,.77-.21M44,68.72a1.64,1.64,0,0,0,.55-.56,1.53,1.53,0,0,0-1.32-2.3,1.51,1.51,0,0,0-1.09.45,1.47,1.47,0,0,0-.45,1.08,1.54,1.54,0,0,0,1.54,1.54,1.46,1.46,0,0,0,.77-.21m-13.68,0a1.67,1.67,0,0,0,.56-.56,1.46,1.46,0,0,0,.21-.77,1.44,1.44,0,0,0-.46-1.08,1.53,1.53,0,0,0-2.61,1.08,1.51,1.51,0,0,0,.45,1.09,1.47,1.47,0,0,0,1.08.45,1.44,1.44,0,0,0,.77-.21m-13.67,0a1.64,1.64,0,0,0,.55-.56,1.53,1.53,0,0,0-2.4-1.85,1.44,1.44,0,0,0-.46,1.08,1.55,1.55,0,0,0,1.54,1.54,1.46,1.46,0,0,0,.77-.21M3,68.72a1.67,1.67,0,0,0,.56-.56,1.531,1.531,0,0,0-1.33-2.3,1.47,1.47,0,0,0-1.08.45A1.47,1.47,0,0,0,.7,67.39a1.51,1.51,0,0,0,.45,1.09,1.47,1.47,0,0,0,1.08.45A1.44,1.44,0,0,0,3,68.72"
       transform="translate(-0.42 -0.43)"
       fill="#1d1d1b"
       style="fill:#ffffff" />
  </g>
</svg>
